<?xml version="1.0" standalone="no"?>
<!DOCTYPE svg PUBLIC "-//W3C//DTD SVG 20010904//EN"
 "http://www.w3.org/TR/2001/REC-SVG-20010904/DTD/svg10.dtd">
<svg version="1.0" xmlns="http://www.w3.org/2000/svg"
 width="1904.000000pt" height="1520.000000pt" viewBox="0 0 1904.000000 1520.000000"
 preserveAspectRatio="xMidYMid meet">

<g transform="translate(0.000000,1520.000000) scale(0.100000,-0.100000)"
fill="#000000" stroke="none">
<path d="M0 7600 l0 -7600 9520 0 9520 0 0 7600 0 7600 -9520 0 -9520 0 0
-7600z m7046 4518 c38 -40 123 -131 189 -203 65 -71 185 -200 265 -285 81 -85
200 -213 265 -285 66 -71 162 -175 215 -230 53 -55 180 -190 281 -300 101
-110 231 -249 289 -310 121 -127 167 -176 350 -375 73 -80 179 -192 234 -250
56 -58 152 -161 215 -230 63 -69 183 -197 266 -285 84 -88 176 -187 206 -220
127 -140 311 -337 404 -435 56 -58 126 -132 156 -165 30 -33 110 -120 178
-193 173 -185 158 -188 -64 -15 -66 51 -358 271 -650 488 -291 218 -559 418
-595 445 -36 27 -123 93 -194 146 -72 53 -146 109 -165 124 -20 15 -452 339
-961 720 -509 381 -935 701 -947 713 l-23 20 0 599 c0 329 4 598 8 598 5 0 40
-33 78 -72z m1663 -441 c181 -102 178 -100 491 -272 210 -115 666 -366 745
-410 22 -12 96 -52 165 -90 69 -37 231 -127 360 -198 129 -71 258 -142 285
-157 28 -15 142 -78 255 -140 113 -62 273 -149 355 -195 83 -45 186 -102 230
-125 273 -148 381 -272 441 -508 50 -198 22 -386 -84 -561 -68 -112 -168 -199
-332 -288 -83 -45 -656 -360 -708 -389 -40 -23 -21 -45 -207 230 -77 114 -202
298 -279 409 -76 111 -220 321 -319 467 -172 253 -370 542 -488 715 -47 68
-261 382 -534 782 -38 57 -124 183 -190 280 -66 97 -173 253 -238 346 -118
169 -136 197 -122 197 4 0 82 -42 174 -93z m-1514 -1672 c116 -64 284 -159
375 -210 91 -51 226 -126 300 -168 74 -41 351 -195 615 -342 264 -147 543
-302 620 -345 77 -43 255 -142 395 -220 140 -79 305 -170 365 -203 61 -33 175
-97 255 -142 135 -76 176 -99 335 -185 172 -93 103 -81 -446 76 -261 74 -629
180 -819 234 -190 54 -604 173 -921 264 -317 91 -641 183 -720 206 -79 22
-243 69 -364 104 l-220 63 -3 484 c-1 266 0 490 3 497 3 7 8 11 12 9 5 -2 103
-57 218 -122z m260 -1635 c242 -32 647 -87 900 -120 253 -34 723 -97 1045
-140 322 -43 647 -86 723 -96 76 -9 136 -21 135 -26 -2 -5 -39 -28 -83 -52
-105 -55 -590 -321 -1300 -711 -546 -301 -567 -311 -728 -347 -307 -69 -666
40 -899 274 -118 117 -208 277 -255 453 -26 97 -26 109 -31 453 -2 194 -1 359
2 368 4 9 14 13 28 9 13 -3 221 -32 463 -65z m-1975 -2669 c19 -10 44 -34 55
-52 19 -33 20 -55 23 -534 2 -473 1 -502 -16 -535 -11 -19 -34 -45 -52 -57
-32 -23 -39 -23 -311 -23 l-279 0 0 603 c0 332 3 607 7 610 3 4 126 7 272 7
241 0 270 -2 301 -19z m1200 -16 c0 -46 -21 -94 -54 -125 -26 -24 -34 -25
-172 -28 l-144 -3 2 -161 3 -160 138 1 137 2 0 -40 c0 -53 -12 -80 -51 -119
-32 -32 -34 -32 -131 -32 l-98 0 0 -164 0 -165 144 -3 c138 -3 146 -4 172 -28
33 -31 54 -79 54 -125 l0 -35 -290 0 -290 0 0 610 0 610 290 0 290 0 0 -35z
m1064 21 c18 -7 44 -29 57 -47 24 -33 24 -37 24 -261 l0 -227 -34 -35 -35 -36
35 -36 34 -35 3 -206 c3 -224 0 -242 -49 -289 l-30 -29 -287 0 -287 0 -3 595
c-1 327 0 601 3 608 7 19 523 17 569 -2z m1230 -25 c21 -20 38 -48 40 -65 9
-60 14 -965 6 -1003 -6 -25 -23 -51 -49 -75 l-40 -38 -281 0 -280 0 0 610 0
611 284 -3 285 -3 35 -34z m1170 -1 c-1 -50 -32 -109 -68 -131 -26 -16 -52
-19 -163 -19 l-133 0 0 -162 0 -163 140 3 140 4 0 -36 c0 -48 -16 -85 -53
-123 -31 -33 -31 -33 -129 -33 l-98 0 0 -165 0 -165 133 0 c113 0 137 -3 164
-20 40 -24 62 -65 65 -121 l3 -44 -287 -3 -288 -2 0 610 0 610 288 -2 287 -3
-1 -35z m575 30 c48 -13 87 -54 100 -103 11 -41 26 -202 56 -607 21 -276 24
-294 54 -298 13 -2 27 0 31 5 5 4 13 73 20 153 34 427 61 737 66 755 9 30 55
76 91 91 18 8 53 14 79 14 l46 0 -6 -52 c-3 -29 -22 -253 -41 -498 -19 -245
-39 -474 -45 -510 -10 -70 -29 -103 -80 -137 -30 -21 -45 -23 -160 -23 -115 0
-130 2 -160 23 -60 39 -71 72 -86 245 -7 86 -27 315 -44 507 -16 193 -30 371
-30 398 l0 47 38 0 c20 0 53 -4 71 -10z m1256 -562 l0 -568 -37 -37 c-34 -34
-43 -37 -103 -41 l-65 -4 0 559 0 560 23 34 c30 46 81 70 137 67 l45 -3 0
-567z m1125 532 c0 -47 -17 -85 -55 -120 -25 -24 -34 -25 -168 -30 l-142 -5
-3 -157 -3 -158 141 0 140 0 0 -45 c0 -51 -16 -89 -50 -120 -18 -16 -41 -21
-123 -25 l-102 -5 -5 -217 -5 -218 -37 -37 c-34 -34 -43 -37 -103 -41 l-65 -4
0 604 c0 333 3 608 7 611 3 4 134 7 290 7 l283 0 0 -40z m541 30 c69 -19 111
-88 124 -206 4 -33 15 -126 26 -208 10 -81 19 -152 19 -157 0 -5 16 -9 35 -9
27 0 38 5 45 23 5 12 21 117 36 232 14 116 33 225 42 243 22 48 82 84 148 90
54 4 54 4 54 -24 0 -44 -70 -594 -81 -636 -13 -49 -49 -90 -99 -113 l-42 -19
3 -210 3 -211 -47 -3 c-59 -4 -110 20 -137 63 -18 29 -20 49 -20 198 l0 166
-43 19 c-40 18 -97 72 -97 92 0 5 -7 60 -15 122 -40 305 -65 513 -65 534 0 21
5 24 38 24 20 0 53 -5 73 -10z m-9668 -1849 c13 -5 27 -17 31 -27 12 -32 8
-225 -5 -241 -10 -11 -10 -19 -2 -32 17 -27 26 -122 18 -181 -12 -84 -23 -90
-174 -90 -126 0 -129 1 -132 23 -2 12 -3 142 -1 290 l3 267 119 0 c65 0 130
-4 143 -9z m301 -3 c14 -6 29 -20 33 -32 4 -12 6 -95 4 -186 -1 -90 1 -186 4
-212 l7 -48 49 0 49 0 0 220 0 221 25 24 c13 14 36 25 50 25 l25 0 0 -270 c0
-333 11 -310 -152 -310 -168 0 -158 -21 -158 312 0 259 1 268 20 268 10 0 30
-5 44 -12z m544 -260 c2 -257 2 -268 -18 -288 -11 -11 -33 -20 -50 -20 l-30 0
0 268 c0 244 2 270 18 284 21 19 42 27 62 25 13 -2 15 -41 18 -269z m261 257
c16 -8 31 -22 35 -30 3 -9 6 -113 6 -231 l0 -214 68 0 c75 0 95 -11 107 -62
l7 -28 -141 0 -141 0 0 290 c0 318 -2 307 59 275z m668 -8 c16 -16 18 -43 21
-262 l3 -245 -25 -25 c-24 -24 -30 -25 -156 -25 l-130 0 -1 63 c-2 111 -3 239
-1 380 l2 139 135 -4 c113 -2 137 -6 152 -21z m321 -243 c2 -252 2 -262 -19
-287 -24 -31 -75 -38 -81 -10 -2 9 -2 133 0 275 l3 259 32 14 c64 28 62 36 65
-251z m266 252 c35 -15 50 -41 101 -176 16 -41 32 -79 37 -85 4 -5 8 47 8 116
0 138 4 149 57 149 l33 0 0 -285 0 -285 -29 0 c-50 0 -77 36 -127 165 -25 66
-48 122 -49 124 -2 1 -3 -54 -2 -124 1 -123 0 -128 -23 -147 -13 -11 -35 -18
-49 -16 l-26 3 -3 275 c-1 151 0 280 3 287 6 17 28 16 69 -1z m704 3 c37 -13
40 -20 44 -119 l3 -75 -38 1 c-48 2 -57 11 -64 63 -4 28 -11 41 -22 42 -9 0
-31 2 -49 5 l-32 4 2 -198 3 -197 45 0 45 0 6 44 c5 35 2 47 -13 60 -10 9 -27
24 -38 34 -27 23 -26 55 3 62 12 3 52 5 87 3 l65 -3 2 -95 c4 -189 -5 -200
-159 -200 -102 0 -110 1 -133 25 l-25 24 0 219 c0 263 2 280 44 298 38 16 181
18 224 3z m840 5 c48 -13 13 -81 -46 -86 l-37 -3 -2 -225 c-3 -215 -4 -226
-24 -242 -12 -10 -34 -18 -50 -18 l-29 0 0 240 0 240 -27 6 c-45 10 -73 33
-73 58 0 12 3 26 7 29 8 9 250 9 281 1z m245 -5 c34 -18 37 -28 37 -130 0
-108 0 -108 68 -101 l42 4 0 90 c0 49 5 98 10 108 8 16 78 45 86 37 2 -1 4
-130 6 -287 l3 -285 -31 -3 c-54 -5 -68 24 -72 145 l-4 104 -50 -3 -49 -3 -3
-104 c-3 -96 -5 -105 -27 -122 -13 -10 -36 -19 -51 -19 l-28 0 0 283 c0 156 3
287 7 290 10 10 32 8 56 -4z m724 -5 c3 -9 -1 -28 -10 -43 -13 -22 -25 -27
-86 -34 l-71 -9 0 -73 0 -73 62 1 c70 2 83 -11 52 -57 -14 -22 -24 -26 -65
-26 l-49 0 0 -80 0 -80 65 0 c73 0 105 -20 105 -65 l0 -26 -137 3 -138 3 -3
275 c-1 151 0 280 3 287 3 10 39 13 135 13 111 0 132 -2 137 -16z m789 4 c39
-18 44 -48 44 -287 0 -298 11 -281 -176 -281 l-134 0 0 291 0 290 122 -2 c67
-1 132 -6 144 -11z m342 -254 c2 -252 2 -262 -19 -287 -14 -18 -30 -27 -50
-27 l-29 0 0 268 c0 244 2 270 18 284 21 19 42 27 62 25 13 -2 15 -40 18 -263z
m465 255 c35 -16 47 -49 47 -129 0 -70 0 -70 -28 -70 -46 0 -72 25 -72 70 0
35 -3 39 -27 42 -16 2 -40 1 -56 -1 l-27 -3 2 -192 3 -191 38 -3 c51 -4 67 11
67 62 0 38 -3 44 -35 59 -39 18 -58 63 -34 78 8 5 48 8 89 7 l75 -3 3 -123 c3
-119 2 -123 -22 -147 -24 -24 -31 -25 -134 -25 -96 0 -112 2 -133 21 l-24 21
0 231 c0 128 3 244 7 259 5 16 19 30 35 36 38 14 197 15 226 1z m335 -262 c2
-256 2 -267 -18 -287 -11 -11 -33 -20 -50 -20 l-30 0 0 263 c0 218 3 266 15
284 14 20 46 33 70 28 6 -1 11 -101 13 -268z m478 259 c3 -8 -2 -28 -10 -44
-13 -25 -23 -31 -53 -34 l-38 -3 -5 -222 c-6 -247 -10 -263 -70 -263 l-30 0 0
239 0 239 -44 11 c-36 9 -46 16 -55 43 -9 24 -8 33 1 40 7 4 77 8 156 8 114 0
144 -3 148 -14z m357 3 c14 -6 30 -22 36 -36 8 -18 61 -471 61 -525 0 -16 -58
-8 -81 11 -17 14 -25 32 -29 72 l-5 54 -46 3 c-50 3 -59 -7 -59 -69 0 -38 -42
-79 -81 -79 -31 0 -32 0 -25 41 6 36 26 230 42 409 7 71 24 106 57 120 31 12
102 12 130 -1z m352 -14 l25 -24 0 -221 0 -220 64 0 c72 0 104 -18 108 -60 l3
-25 -137 -3 -138 -3 0 291 0 290 25 0 c14 0 37 -11 50 -25z m973 -1 c2 -11 -5
-31 -15 -43 -18 -22 -45 -29 -116 -30 l-38 -1 3 -71 3 -72 60 -1 c67 -1 80
-17 51 -61 -14 -21 -24 -25 -66 -25 l-50 0 0 -104 c0 -101 -1 -105 -26 -125
-15 -12 -37 -21 -50 -21 l-24 0 0 283 c0 156 3 287 7 291 4 3 63 5 132 4 119
-3 126 -4 129 -24z m254 0 c16 -15 18 -40 20 -238 l3 -221 50 0 50 0 5 222 c5
243 7 249 65 255 l30 3 3 -265 c2 -218 0 -269 -12 -285 -13 -18 -29 -20 -134
-23 -173 -5 -162 -27 -162 311 l0 270 32 -7 c17 -3 40 -14 50 -22z m697 17
c12 -8 12 -14 1 -40 -12 -29 -22 -35 -75 -43 -19 -3 -20 -11 -20 -226 0 -223
0 -224 -24 -243 -13 -10 -36 -19 -52 -19 l-29 0 0 238 0 238 -42 14 c-50 18
-84 64 -58 80 19 12 280 13 299 1z m225 -3 c39 -17 46 -61 46 -281 l0 -198 53
3 52 3 5 230 5 229 25 13 c38 19 59 16 66 -11 3 -13 4 -134 2 -269 -3 -220 -5
-248 -21 -264 -14 -15 -38 -19 -130 -21 -101 -3 -115 -1 -137 16 l-25 20 -3
258 c-2 141 -1 263 2 271 7 16 27 17 60 1z m690 6 c67 -10 76 -32 76 -183 0
-130 -8 -166 -39 -176 -27 -8 -26 -26 4 -113 32 -92 32 -102 -3 -102 -40 0
-78 44 -103 121 -24 71 -35 89 -55 89 -11 0 -14 -19 -14 -82 0 -70 -3 -85 -22
-105 -13 -13 -33 -23 -50 -23 l-28 0 0 283 c0 156 3 287 7 290 8 9 166 9 227
1z m539 -6 c2 -7 -3 -27 -11 -44 -14 -30 -18 -32 -88 -39 l-74 -7 0 -74 0 -75
62 3 c69 3 78 -5 59 -55 -10 -25 -15 -27 -66 -27 l-55 0 0 -80 0 -80 70 0 c69
0 71 -1 90 -32 35 -57 33 -58 -120 -58 l-140 0 0 283 c0 156 3 287 7 290 3 4
64 7 134 7 93 0 128 -3 132 -12z"/>
<path d="M5110 5110 l0 -420 104 0 c57 0 111 3 120 6 14 5 16 49 16 389 0 210
-3 397 -6 414 l-6 31 -114 0 -114 0 0 -420z"/>
<path d="M7385 5517 c-3 -7 -4 -80 -3 -161 l3 -149 110 2 c61 1 113 6 118 10
4 4 6 75 5 157 l-3 149 -113 3 c-86 2 -114 0 -117 -11z"/>
<path d="M7403 5013 c-23 -4 -23 -6 -23 -164 l0 -160 118 3 117 3 3 154 c2
117 -1 156 -10 163 -13 8 -165 9 -205 1z"/>
<path d="M8580 5110 l0 -421 113 3 112 3 0 415 0 415 -112 3 -113 3 0 -421z"/>
<path d="M3815 3772 c-3 -3 -5 -36 -5 -74 l0 -68 49 0 c56 0 61 6 61 81 0 31
-5 51 -12 54 -22 8 -87 12 -93 7z"/>
<path d="M3817 3533 c-4 -3 -7 -39 -7 -80 l0 -73 43 0 c24 0 48 5 55 12 19 19
16 134 -4 142 -21 8 -79 8 -87 -1z"/>
<path d="M5560 3574 l0 -195 53 3 52 3 3 193 2 192 -55 0 -55 0 0 -196z"/>
<path d="M9470 3574 l0 -195 53 3 52 3 3 193 2 192 -55 0 -55 0 0 -196z"/>
<path d="M11526 3722 c-3 -31 -9 -87 -12 -124 l-7 -68 38 0 37 0 -6 60 c-3 33
-9 87 -12 119 -8 81 -30 88 -38 13z"/>
<path d="M14674 3771 c-2 -2 -4 -46 -4 -98 l0 -93 39 0 c69 0 71 2 71 100 l0
88 -51 4 c-28 1 -53 1 -55 -1z"/>
</g>
</svg>
